<svg xmlns="http://www.w3.org/2000/svg" xmlns:xlink="http://www.w3.org/1999/xlink" width="218" height="52" version="1.1" style=""><rect id="backgroundrect" width="100%" height="100%" x="0" y="0" fill="none" stroke="none"/>

<g class="currentLayer" style=""><title>Layer 1</title><g id="surface1" class="">
<path style=" stroke:none;fill-rule:nonzero;fill:rgb(6.010437%,50.360107%,79.891968%);fill-opacity:1;" d="M216.296875,26.464844 L216.515625,26.464844 C216.707031,26.464844 216.90625,26.464844 216.90625,26.203125 C216.90625,25.941406 216.6875,25.941406 216.515625,25.941406 L216.296875,25.941406 zM215.703125,25.5625 L216.6875,25.5625 C217.035156,25.5625 217.476563,25.5625 217.476563,26.109375 C217.476563,26.332031 217.375,26.5625 216.964844,26.613281 L216.964844,26.625 C217.367188,26.632813 217.386719,26.832031 217.425781,27.042969 C217.496094,27.515625 217.496094,27.535156 217.535156,27.664063 L216.90625,27.664063 C216.875,27.535156 216.859375,27.394531 216.835938,27.175781 C216.804688,26.933594 216.796875,26.84375 216.535156,26.84375 L216.296875,26.84375 L216.296875,27.664063 L215.703125,27.664063 zM215.015625,26.613281 C215.015625,27.472656 215.71875,28.175781 216.574219,28.175781 C217.453125,28.175781 218.152344,27.464844 218.152344,26.613281 C218.152344,25.734375 217.441406,25.035156 216.574219,25.035156 C215.730469,25.035156 215.015625,25.722656 215.015625,26.613281 M218.476563,26.613281 C218.476563,27.652344 217.625,28.503906 216.574219,28.503906 C215.527344,28.503906 214.683594,27.652344 214.683594,26.613281 C214.683594,25.542969 215.542969,24.710938 216.574219,24.710938 C217.609375,24.710938 218.476563,25.542969 218.476563,26.613281 " id="svg_1"/>
<path style=" stroke:none;fill-rule:nonzero;fill:rgb(6.010437%,50.360107%,79.891968%);fill-opacity:1;" d="M30.851563,34.78125 C29.460938,39.648438 24.984375,43.214844 19.667969,43.214844 C16.820313,43.214844 14.210937999999999,42.1875 12.191406,40.488281 C14.625,44.777344 19.1875,47.71875 24.476563,47.847656 C30.167969,47.988281 35.171875,44.835938 37.671875,40.128906 C38.339844,38.726563 38.847656,37.234375 39.171875,35.671875 C39.222656,35.378906 39.261719,35.082031 39.292969,34.78125 zM24.433594,49.6875 C16.085938,49.484375 9.351562999999999,43.066406 8.542969,34.964844 C8.523437999999999,34.90625 8.507812999999999,34.839844 8.488281,34.78125 L0,34.78125 C1.53125,44.261719 9.753906,51.507813 19.667969,51.507813 C23.09375,51.507813 26.320313,50.644531 29.136719,49.121094 C27.640625,49.527344 26.0625,49.730469 24.433594,49.6875 M8.488281,28.394531 C9.878906,23.523438 14.355469,19.960938 19.667969,19.960938 C22.519531,19.960938 25.125,20.984375 27.148438,22.6875 C24.710938,18.398438 20.152344,15.453125 14.863281,15.324219 C9.171875,15.183594 4.167968999999999,18.335938 1.6679689999999994,23.042969 C1,24.445313 0.49218799999999874,25.9375 0.16796899999999937,27.5 C0.11718799999999874,27.792969 0.078125,28.09375 0.046875,28.394531 zM30.976563,2.5625 L30.976563,15.179687999999999 C27.761719,12.960937999999999 23.867188,11.664062999999999 19.667969,11.664062999999999 C16.242188,11.664062999999999 13.019531,12.527344 10.203125,14.050781 C11.699219,13.644531 13.277344,13.445312999999999 14.90625,13.484375 C23.253906,13.6875 29.988281,20.105469 30.796875,28.207031 C30.816406,28.269531 30.832031,28.332031 30.851563,28.394531 L39.328125,28.394531 L39.328125,2.5625 zM11.421875,31.582031 C11.421875,27.03125 15.113281,23.339844 19.664063,23.339844 C24.214844,23.339844 27.90625,27.03125 27.90625,31.582031 C27.90625,36.132813 24.214844,39.820313 19.664063,39.820313 C15.113281,39.820313 11.421875,36.132813 11.421875,31.582031 " id="svg_2"/>
<path style=" stroke:none;fill-rule:nonzero;fill:rgb(6.010437%,50.360107%,79.891968%);fill-opacity:1;" d="M68.066406,23.988281 C68.066406,26.84375 70.109375,27.179688 71.925781,27.179688 C79.949219,27.179688 82.585938,21.128906 82.585938,15.59375 C82.585938,8.652344 78.128906,3.6367189999999994 70.960938,3.6367189999999994 C69.441406,3.6367189999999994 68.734375,3.75 68.066406,3.7851560000000006 zM64.425781,6.570312999999999 C64.425781,3.2304689999999994 62.679688,3.453125 61.007813,3.4140629999999987 L61.007813,2.4492189999999994 C62.457031,2.5234379999999987 63.945313,2.5234379999999987 65.390625,2.5234379999999987 C66.949219,2.5234379999999987 69.070313,2.4492189999999994 71.816406,2.4492189999999994 C81.433594,2.4492189999999994 86.667969,8.875 86.667969,15.445312999999999 C86.667969,19.125 84.515625,28.371094 71.371094,28.371094 C69.476563,28.371094 67.730469,28.296875 65.984375,28.296875 C64.316406,28.296875 62.679688,28.332031 61.007813,28.371094 L61.007813,27.402344 C63.238281,27.179688 64.316406,27.105469 64.425781,24.582031 zM64.425781,6.570312999999999 " id="svg_3"/>
<path style=" stroke:none;fill-rule:nonzero;fill:rgb(6.010437%,50.360107%,79.891968%);fill-opacity:1;" d="M96.460938,27.960938 C100.175781,27.960938 101.625,23.652344 101.625,20.460938 C101.625,17.414063 99.988281,12.363281 96.054688,12.363281 C92.375,12.363281 90.925781,16.671875 90.925781,19.867188 C90.925781,22.910156 92.5625,27.960938 96.460938,27.960938 M96.015625,11.398437999999999 C101.175781,11.398437999999999 105.039063,14.816406 105.039063,20.089844 C105.039063,24.878906 101.253906,28.925781 96.5,28.925781 C91.558594,28.925781 87.511719,25.511719 87.511719,20.238281 C87.511719,15.445312999999999 91.039063,11.398437999999999 96.015625,11.398437999999999 " id="svg_4"/>
<path style=" stroke:none;fill-rule:nonzero;fill:rgb(6.010437%,50.360107%,79.891968%);fill-opacity:1;" d="M106.609375,16.339844 C106.609375,14.964844 106.203125,14.59375 104.457031,13.886719 L104.457031,13.183594 C106.054688,12.660156 107.574219,12.179687999999999 109.359375,11.398437999999999 C109.46875,11.398437999999999 109.582031,11.472656 109.582031,11.769531 L109.582031,14.183594 C111.699219,12.660156 113.515625,11.398437999999999 116.003906,11.398437999999999 C119.160156,11.398437999999999 120.273438,13.703125 120.273438,16.597656 L120.273438,26.179688 C120.273438,27.402344 121.089844,27.402344 122.128906,27.402344 L122.796875,27.402344 L122.796875,28.371094 C121.5,28.371094 120.199219,28.296875 118.863281,28.296875 C117.527344,28.296875 116.1875,28.332031 114.851563,28.371094 L114.851563,27.402344 L115.519531,27.402344 C116.558594,27.402344 117.300781,27.402344 117.300781,26.179688 L117.300781,16.5625 C117.300781,14.441406 116.003906,13.402344 113.886719,13.402344 C112.699219,13.402344 110.804688,14.371094 109.582031,15.1875 L109.582031,26.179688 C109.582031,27.402344 110.398438,27.402344 111.433594,27.402344 L112.105469,27.402344 L112.105469,28.371094 C110.804688,28.371094 109.507813,28.296875 108.167969,28.296875 C106.832031,28.296875 105.496094,28.332031 104.160156,28.371094 L104.160156,27.402344 L104.828125,27.402344 C105.867188,27.402344 106.609375,27.402344 106.609375,26.179688 zM106.609375,16.339844 " id="svg_5"/>
<path style=" stroke:none;fill-rule:nonzero;fill:rgb(6.010437%,50.360107%,79.891968%);fill-opacity:1;" d="M197.238281,16.339844 C197.238281,14.964844 196.832031,14.59375 195.085938,13.886719 L195.085938,13.183594 C196.683594,12.660156 198.203125,12.179687999999999 199.988281,11.398437999999999 C200.097656,11.398437999999999 200.210938,11.472656 200.210938,11.769531 L200.210938,14.183594 C202.328125,12.660156 204.144531,11.398437999999999 206.632813,11.398437999999999 C209.789063,11.398437999999999 210.902344,13.703125 210.902344,16.597656 L210.902344,26.179688 C210.902344,27.402344 211.71875,27.402344 212.757813,27.402344 L213.425781,27.402344 L213.425781,28.371094 C212.128906,28.371094 210.828125,28.296875 209.492188,28.296875 C208.15625,28.296875 206.816406,28.332031 205.480469,28.371094 L205.480469,27.402344 L206.148438,27.402344 C207.1875,27.402344 207.929688,27.402344 207.929688,26.179688 L207.929688,16.5625 C207.929688,14.441406 206.632813,13.402344 204.515625,13.402344 C203.328125,13.402344 201.433594,14.371094 200.210938,15.1875 L200.210938,26.179688 C200.210938,27.402344 201.027344,27.402344 202.0625,27.402344 L202.734375,27.402344 L202.734375,28.371094 C201.433594,28.371094 200.136719,28.296875 198.796875,28.296875 C197.460938,28.296875 196.125,28.332031 194.789063,28.371094 L194.789063,27.402344 L195.457031,27.402344 C196.496094,27.402344 197.238281,27.402344 197.238281,26.179688 zM197.238281,16.339844 " id="svg_6"/>
<path style=" stroke:none;fill-rule:nonzero;fill:rgb(6.010437%,50.360107%,79.891968%);fill-opacity:1;" d="M132.792969,20.125 C130.902344,20.867188 126.074219,21.722656 126.074219,24.507813 C126.074219,25.957031 127.261719,27.179688 128.710938,27.179688 C130.453125,27.179688 131.570313,26.105469 132.792969,25.027344 zM138.8125,26.921875 C137.769531,27.886719 136.621094,28.925781 135.136719,28.925781 C133.613281,28.925781 132.90625,27.515625 132.832031,26.179688 C131.085938,27.773438 129.414063,28.925781 127.113281,28.925781 C124.734375,28.925781 123.101563,27.292969 123.101563,25.324219 C123.25,22.355469 124.773438,21.796875 132.792969,19.050781 L132.792969,16.597656 C132.792969,14.519531 131.570313,13.40625 129.191406,13.40625 C127.558594,13.40625 126.445313,14.332031 126.371094,16.003906 C126.371094,17.042969 125.183594,17.5625 124.289063,17.5625 C123.734375,17.5625 123.621094,17.082031 123.621094,16.820313 C123.621094,14.851562999999999 125.292969,13.925781 127.894531,12.585937999999999 C129.191406,11.917969 129.824219,11.398437999999999 131.234375,11.398437999999999 C132.90625,11.398437999999999 135.765625,12.476562999999999 135.765625,14.519531 L135.765625,24.804688 C135.765625,26.328125 136.285156,26.921875 137.101563,26.921875 C137.585938,26.921875 138.140625,26.695313 138.476563,26.289063 zM138.8125,26.921875 " id="svg_7"/>
<path style=" stroke:none;fill-rule:nonzero;fill:rgb(6.010437%,50.360107%,79.891968%);fill-opacity:1;" d="M138.941406,27.402344 L139.648438,27.402344 C140.6875,27.402344 141.429688,27.402344 141.429688,26.179688 L141.429688,5.496093999999999 C141.429688,3.0820310000000006 140.871094,3.0078129999999987 139.464844,2.5976560000000006 L139.464844,2.0039060000000006 C140.949219,1.5195310000000006 142.507813,0.8515629999999987 143.289063,0.40625 C143.695313,0.18359399999999937 143.992188,0 144.105469,0 C144.328125,0 144.402344,0.22265600000000063 144.402344,0.5195310000000006 L144.402344,26.179688 C144.402344,27.402344 145.21875,27.402344 146.257813,27.402344 L146.890625,27.402344 L146.890625,28.371094 C145.628906,28.371094 144.328125,28.296875 142.988281,28.296875 C141.652344,28.296875 140.316406,28.332031 138.941406,28.371094 zM138.941406,27.402344 " id="svg_8"/>
<path style=" stroke:none;fill-rule:nonzero;fill:rgb(6.010437%,50.360107%,79.891968%);fill-opacity:1;" d="M159.496094,16.003906 C159.496094,13.253906 157.191406,12.585937999999999 155.558594,12.585937999999999 C152.921875,12.585937999999999 150.027344,14.554687999999999 150.027344,19.566406 C150.027344,23.652344 152.511719,26.695313 155.894531,26.695313 C157.007813,26.695313 159.496094,25.878906 159.496094,24.507813 zM162.464844,25.175781 C162.464844,26.695313 162.839844,26.695313 164.285156,26.695313 L164.917969,26.695313 L164.917969,27.441406 L164.878906,27.441406 C164.320313,27.550781 163.320313,27.847656 162.242188,28.183594 C161.089844,28.554688 160.125,28.925781 159.902344,28.925781 C159.53125,28.925781 159.496094,28.371094 159.496094,27.921875 L159.496094,26.214844 L159.421875,26.214844 C158.085938,27.589844 156.003906,28.925781 153.738281,28.925781 C149.28125,28.925781 146.832031,25.027344 146.832031,20.867188 C146.832031,15.855469 150.878906,11.398437999999999 156.003906,11.398437999999999 C157.191406,11.398437999999999 158.417969,11.621094 159.496094,12.066406 L159.496094,5.496093999999999 C159.496094,3.0820310000000006 158.9375,3.0078129999999987 157.527344,2.5976560000000006 L157.527344,2.0039060000000006 C159.011719,1.5195310000000006 160.574219,0.8515629999999987 161.351563,0.40625 C161.761719,0.18359399999999937 162.058594,0 162.167969,0 C162.390625,0 162.464844,0.22265600000000063 162.464844,0.5195310000000006 zM162.464844,25.175781 " id="svg_9"/>
<path style=" stroke:none;fill-rule:nonzero;fill:rgb(6.010437%,50.360107%,79.891968%);fill-opacity:1;" d="M166.664063,23.207031 C167.144531,25.660156 168.628906,27.738281 171.339844,27.738281 C173.53125,27.738281 174.351563,26.402344 174.351563,25.101563 C174.351563,20.71875 166.253906,22.128906 166.253906,16.152344 C166.253906,14.074219 167.925781,11.398437999999999 172.007813,11.398437999999999 C173.199219,11.398437999999999 174.796875,11.734375 176.242188,12.476562999999999 L176.503906,16.265625 L175.648438,16.265625 C175.277344,13.925781 173.976563,12.585937999999999 171.601563,12.585937999999999 C170.117188,12.585937999999999 168.707031,13.441406 168.707031,15.039062999999999 C168.707031,19.382813 177.320313,18.046875 177.320313,23.875 C177.320313,26.328125 175.351563,28.925781 170.933594,28.925781 C169.449219,28.925781 167.703125,28.40625 166.402344,27.664063 L165.996094,23.394531 zM166.664063,23.207031 " id="svg_10"/>
<path style=" stroke:none;fill-rule:nonzero;fill:rgb(6.010437%,50.360107%,79.891968%);fill-opacity:1;" d="M187.261719,27.960938 C190.972656,27.960938 192.421875,23.652344 192.421875,20.460938 C192.421875,17.414063 190.789063,12.363281 186.851563,12.363281 C183.175781,12.363281 181.726563,16.671875 181.726563,19.867188 C181.726563,22.910156 183.363281,27.960938 187.261719,27.960938 M186.816406,11.398437999999999 C191.976563,11.398437999999999 195.839844,14.816406 195.839844,20.089844 C195.839844,24.878906 192.050781,28.925781 187.296875,28.925781 C182.359375,28.925781 178.3125,25.511719 178.3125,20.238281 C178.3125,15.445312999999999 181.839844,11.398437999999999 186.816406,11.398437999999999 " id="svg_11"/>
<path style=" stroke:none;fill-rule:nonzero;fill:rgb(6.010437%,50.360107%,79.891968%);fill-opacity:1;" d="M64.628906,34.679688 L65.625,34.679688 L65.625,41.3125 L69.054688,41.3125 L69.054688,42.210938 L64.628906,42.210938 zM64.628906,34.679688 " id="svg_12"/>
<path style=" stroke:none;fill-rule:nonzero;fill:rgb(6.010437%,50.360107%,79.891968%);fill-opacity:1;" d="M72.710938,34.679688 L73.714844,34.679688 L73.714844,42.210938 L72.710938,42.210938 zM72.710938,34.679688 " id="svg_13"/>
<path style=" stroke:none;fill-rule:nonzero;fill:rgb(6.010437%,50.360107%,79.891968%);fill-opacity:1;" d="M77.957031,34.679688 L79.390625,34.679688 L82.957031,40.820313 L82.957031,34.679688 L83.863281,34.679688 L83.863281,42.210938 L82.632813,42.210938 L78.886719,35.820313 L78.886719,42.210938 L77.957031,42.210938 zM77.957031,34.679688 " id="svg_14"/>
<path style=" stroke:none;fill-rule:nonzero;fill:rgb(6.010437%,50.360107%,79.891968%);fill-opacity:1;" d="M88.105469,34.679688 L89.109375,34.679688 L89.109375,37.910156 L92.203125,34.679688 L93.554688,34.679688 L90.28125,38.027344 L93.953125,42.210938 L92.507813,42.210938 L89.109375,38.226563 L89.109375,42.210938 L88.105469,42.210938 zM88.105469,34.679688 " id="svg_15"/>
<path style=" stroke:none;fill-rule:nonzero;fill:rgb(6.010437%,50.360107%,79.891968%);fill-opacity:1;" d="M97.011719,38.011719 L99.488281,38.011719 L99.488281,38.890625 L97.011719,38.890625 zM97.011719,38.011719 " id="svg_16"/>
<path style=" stroke:none;fill-rule:nonzero;fill:rgb(6.010437%,50.360107%,79.891968%);fill-opacity:1;" d="M103.335938,34.679688 L104.339844,34.679688 L104.339844,42.210938 L103.335938,42.210938 zM103.335938,34.679688 " id="svg_17"/>
<path style=" stroke:none;fill-rule:nonzero;fill:rgb(6.010437%,50.360107%,79.891968%);fill-opacity:1;" d="M109.242188,39.636719 C109.242188,40.882813 109.816406,41.605469 110.839844,41.605469 C111.824219,41.605469 112.460938,40.871094 112.460938,39.554688 C112.460938,38.257813 111.867188,37.535156 110.859375,37.535156 C109.867188,37.535156 109.242188,38.339844 109.242188,39.636719 M110.859375,36.847656 C112.480469,36.847656 113.445313,37.828125 113.445313,39.542969 C113.445313,41.3125 112.460938,42.335938 110.765625,42.335938 C109.199219,42.335938 108.246094,41.320313 108.246094,39.691406 C108.246094,37.933594 109.242188,36.847656 110.859375,36.847656 " id="svg_18"/>
<path style=" stroke:none;fill-rule:nonzero;fill:rgb(6.010437%,50.360107%,79.891968%);fill-opacity:1;" d="M117.914063,42.210938 L117.914063,35.582031 L115.414063,35.582031 L115.414063,34.679688 L121.425781,34.679688 L121.425781,35.582031 L118.917969,35.582031 L118.917969,42.210938 zM117.914063,42.210938 " id="svg_19"/>
</g></g></svg>