<?xml version="1.0" encoding="UTF-8"?>
<svg xmlns="http://www.w3.org/2000/svg" xmlns:xlink="http://www.w3.org/1999/xlink" width="265.977pt" height="100.967pt" viewBox="0 0 265.977 100.967" version="1.1">
<g id="surface1">
<path style=" stroke:none;fill-rule:nonzero;fill:rgb(6.010437%,50.360107%,79.891968%);fill-opacity:1;" d="M 242.34375 50.371094 L 242.5625 50.371094 C 242.753906 50.371094 242.953125 50.371094 242.953125 50.109375 C 242.953125 49.847656 242.734375 49.847656 242.5625 49.847656 L 242.34375 49.847656 Z M 241.75 49.46875 L 242.734375 49.46875 C 243.082031 49.46875 243.523438 49.46875 243.523438 50.015625 C 243.523438 50.238281 243.421875 50.46875 243.011719 50.519531 L 243.011719 50.53125 C 243.414063 50.539063 243.433594 50.738281 243.472656 50.949219 C 243.542969 51.421875 243.542969 51.441406 243.582031 51.570313 L 242.953125 51.570313 C 242.921875 51.441406 242.90625 51.300781 242.882813 51.082031 C 242.851563 50.839844 242.84375 50.75 242.582031 50.75 L 242.34375 50.75 L 242.34375 51.570313 L 241.75 51.570313 Z M 241.0625 50.519531 C 241.0625 51.378906 241.765625 52.082031 242.621094 52.082031 C 243.5 52.082031 244.199219 51.371094 244.199219 50.519531 C 244.199219 49.640625 243.488281 48.941406 242.621094 48.941406 C 241.777344 48.941406 241.0625 49.628906 241.0625 50.519531 M 244.523438 50.519531 C 244.523438 51.558594 243.671875 52.410156 242.621094 52.410156 C 241.574219 52.410156 240.730469 51.558594 240.730469 50.519531 C 240.730469 49.449219 241.589844 48.617188 242.621094 48.617188 C 243.65625 48.617188 244.523438 49.449219 244.523438 50.519531 "/>
<path style=" stroke:none;fill-rule:nonzero;fill:rgb(6.010437%,50.360107%,79.891968%);fill-opacity:1;" d="M 56.898438 58.6875 C 55.507813 63.554688 51.03125 67.121094 45.714844 67.121094 C 42.867188 67.121094 40.257813 66.09375 38.238281 64.394531 C 40.671875 68.683594 45.234375 71.625 50.523438 71.753906 C 56.214844 71.894531 61.21875 68.742188 63.71875 64.035156 C 64.386719 62.632813 64.894531 61.140625 65.21875 59.578125 C 65.269531 59.285156 65.308594 58.988281 65.339844 58.6875 Z M 50.480469 73.59375 C 42.132813 73.390625 35.398438 66.972656 34.589844 58.871094 C 34.570313 58.8125 34.554688 58.746094 34.535156 58.6875 L 26.046875 58.6875 C 27.578125 68.167969 35.800781 75.414063 45.714844 75.414063 C 49.140625 75.414063 52.367188 74.550781 55.183594 73.027344 C 53.6875 73.433594 52.109375 73.636719 50.480469 73.59375 M 34.535156 52.300781 C 35.925781 47.429688 40.402344 43.867188 45.714844 43.867188 C 48.566406 43.867188 51.171875 44.890625 53.195313 46.59375 C 50.757813 42.304688 46.199219 39.359375 40.910156 39.230469 C 35.21875 39.089844 30.214844 42.242188 27.714844 46.949219 C 27.046875 48.351563 26.539063 49.84375 26.214844 51.40625 C 26.164063 51.699219 26.125 52 26.09375 52.300781 Z M 57.023438 26.46875 L 57.023438 39.085938 C 53.808594 36.867188 49.914063 35.570313 45.714844 35.570313 C 42.289063 35.570313 39.066406 36.433594 36.25 37.957031 C 37.746094 37.550781 39.324219 37.351563 40.953125 37.390625 C 49.300781 37.59375 56.035156 44.011719 56.84375 52.113281 C 56.863281 52.175781 56.878906 52.238281 56.898438 52.300781 L 65.375 52.300781 L 65.375 26.46875 Z M 37.46875 55.488281 C 37.46875 50.9375 41.160156 47.246094 45.710938 47.246094 C 50.261719 47.246094 53.953125 50.9375 53.953125 55.488281 C 53.953125 60.039063 50.261719 63.726563 45.710938 63.726563 C 41.160156 63.726563 37.46875 60.039063 37.46875 55.488281 "/>
<path style=" stroke:none;fill-rule:nonzero;fill:rgb(6.010437%,50.360107%,79.891968%);fill-opacity:1;" d="M 94.113281 47.894531 C 94.113281 50.75 96.15625 51.085938 97.972656 51.085938 C 105.996094 51.085938 108.632813 45.035156 108.632813 39.5 C 108.632813 32.558594 104.175781 27.542969 97.007813 27.542969 C 95.488281 27.542969 94.78125 27.65625 94.113281 27.691406 Z M 90.472656 30.476563 C 90.472656 27.136719 88.726563 27.359375 87.054688 27.320313 L 87.054688 26.355469 C 88.503906 26.429688 89.992188 26.429688 91.4375 26.429688 C 92.996094 26.429688 95.117188 26.355469 97.863281 26.355469 C 107.480469 26.355469 112.714844 32.78125 112.714844 39.351563 C 112.714844 43.03125 110.5625 52.277344 97.417969 52.277344 C 95.523438 52.277344 93.777344 52.203125 92.03125 52.203125 C 90.363281 52.203125 88.726563 52.238281 87.054688 52.277344 L 87.054688 51.308594 C 89.285156 51.085938 90.363281 51.011719 90.472656 48.488281 Z M 90.472656 30.476563 "/>
<path style=" stroke:none;fill-rule:nonzero;fill:rgb(6.010437%,50.360107%,79.891968%);fill-opacity:1;" d="M 122.507813 51.867188 C 126.222656 51.867188 127.671875 47.558594 127.671875 44.367188 C 127.671875 41.320313 126.035156 36.269531 122.101563 36.269531 C 118.421875 36.269531 116.972656 40.578125 116.972656 43.773438 C 116.972656 46.816406 118.609375 51.867188 122.507813 51.867188 M 122.0625 35.304688 C 127.222656 35.304688 131.085938 38.722656 131.085938 43.996094 C 131.085938 48.785156 127.300781 52.832031 122.546875 52.832031 C 117.605469 52.832031 113.558594 49.417969 113.558594 44.144531 C 113.558594 39.351563 117.085938 35.304688 122.0625 35.304688 "/>
<path style=" stroke:none;fill-rule:nonzero;fill:rgb(6.010437%,50.360107%,79.891968%);fill-opacity:1;" d="M 132.65625 40.246094 C 132.65625 38.871094 132.25 38.5 130.503906 37.792969 L 130.503906 37.089844 C 132.101563 36.566406 133.621094 36.085938 135.40625 35.304688 C 135.515625 35.304688 135.628906 35.378906 135.628906 35.675781 L 135.628906 38.089844 C 137.746094 36.566406 139.5625 35.304688 142.050781 35.304688 C 145.207031 35.304688 146.320313 37.609375 146.320313 40.503906 L 146.320313 50.085938 C 146.320313 51.308594 147.136719 51.308594 148.175781 51.308594 L 148.84375 51.308594 L 148.84375 52.277344 C 147.546875 52.277344 146.246094 52.203125 144.910156 52.203125 C 143.574219 52.203125 142.234375 52.238281 140.898438 52.277344 L 140.898438 51.308594 L 141.566406 51.308594 C 142.605469 51.308594 143.347656 51.308594 143.347656 50.085938 L 143.347656 40.46875 C 143.347656 38.347656 142.050781 37.308594 139.933594 37.308594 C 138.746094 37.308594 136.851563 38.277344 135.628906 39.09375 L 135.628906 50.085938 C 135.628906 51.308594 136.445313 51.308594 137.480469 51.308594 L 138.152344 51.308594 L 138.152344 52.277344 C 136.851563 52.277344 135.554688 52.203125 134.214844 52.203125 C 132.878906 52.203125 131.542969 52.238281 130.207031 52.277344 L 130.207031 51.308594 L 130.875 51.308594 C 131.914063 51.308594 132.65625 51.308594 132.65625 50.085938 Z M 132.65625 40.246094 "/>
<path style=" stroke:none;fill-rule:nonzero;fill:rgb(6.010437%,50.360107%,79.891968%);fill-opacity:1;" d="M 223.285156 40.246094 C 223.285156 38.871094 222.878906 38.5 221.132813 37.792969 L 221.132813 37.089844 C 222.730469 36.566406 224.25 36.085938 226.035156 35.304688 C 226.144531 35.304688 226.257813 35.378906 226.257813 35.675781 L 226.257813 38.089844 C 228.375 36.566406 230.191406 35.304688 232.679688 35.304688 C 235.835938 35.304688 236.949219 37.609375 236.949219 40.503906 L 236.949219 50.085938 C 236.949219 51.308594 237.765625 51.308594 238.804688 51.308594 L 239.472656 51.308594 L 239.472656 52.277344 C 238.175781 52.277344 236.875 52.203125 235.539063 52.203125 C 234.203125 52.203125 232.863281 52.238281 231.527344 52.277344 L 231.527344 51.308594 L 232.195313 51.308594 C 233.234375 51.308594 233.976563 51.308594 233.976563 50.085938 L 233.976563 40.46875 C 233.976563 38.347656 232.679688 37.308594 230.5625 37.308594 C 229.375 37.308594 227.480469 38.277344 226.257813 39.09375 L 226.257813 50.085938 C 226.257813 51.308594 227.074219 51.308594 228.109375 51.308594 L 228.78125 51.308594 L 228.78125 52.277344 C 227.480469 52.277344 226.183594 52.203125 224.84375 52.203125 C 223.507813 52.203125 222.171875 52.238281 220.835938 52.277344 L 220.835938 51.308594 L 221.503906 51.308594 C 222.542969 51.308594 223.285156 51.308594 223.285156 50.085938 Z M 223.285156 40.246094 "/>
<path style=" stroke:none;fill-rule:nonzero;fill:rgb(6.010437%,50.360107%,79.891968%);fill-opacity:1;" d="M 158.839844 44.03125 C 156.949219 44.773438 152.121094 45.628906 152.121094 48.414063 C 152.121094 49.863281 153.308594 51.085938 154.757813 51.085938 C 156.5 51.085938 157.617188 50.011719 158.839844 48.933594 Z M 164.859375 50.828125 C 163.816406 51.792969 162.667969 52.832031 161.183594 52.832031 C 159.660156 52.832031 158.953125 51.421875 158.878906 50.085938 C 157.132813 51.679688 155.460938 52.832031 153.160156 52.832031 C 150.78125 52.832031 149.148438 51.199219 149.148438 49.230469 C 149.296875 46.261719 150.820313 45.703125 158.839844 42.957031 L 158.839844 40.503906 C 158.839844 38.425781 157.617188 37.3125 155.238281 37.3125 C 153.605469 37.3125 152.492188 38.238281 152.417969 39.910156 C 152.417969 40.949219 151.230469 41.46875 150.335938 41.46875 C 149.78125 41.46875 149.667969 40.988281 149.667969 40.726563 C 149.667969 38.757813 151.339844 37.832031 153.941406 36.492188 C 155.238281 35.824219 155.871094 35.304688 157.28125 35.304688 C 158.953125 35.304688 161.8125 36.382813 161.8125 38.425781 L 161.8125 48.710938 C 161.8125 50.234375 162.332031 50.828125 163.148438 50.828125 C 163.632813 50.828125 164.1875 50.601563 164.523438 50.195313 Z M 164.859375 50.828125 "/>
<path style=" stroke:none;fill-rule:nonzero;fill:rgb(6.010437%,50.360107%,79.891968%);fill-opacity:1;" d="M 164.988281 51.308594 L 165.695313 51.308594 C 166.734375 51.308594 167.476563 51.308594 167.476563 50.085938 L 167.476563 29.402344 C 167.476563 26.988281 166.917969 26.914063 165.511719 26.503906 L 165.511719 25.910156 C 166.996094 25.425781 168.554688 24.757813 169.335938 24.3125 C 169.742188 24.089844 170.039063 23.90625 170.152344 23.90625 C 170.375 23.90625 170.449219 24.128906 170.449219 24.425781 L 170.449219 50.085938 C 170.449219 51.308594 171.265625 51.308594 172.304688 51.308594 L 172.9375 51.308594 L 172.9375 52.277344 C 171.675781 52.277344 170.375 52.203125 169.035156 52.203125 C 167.699219 52.203125 166.363281 52.238281 164.988281 52.277344 Z M 164.988281 51.308594 "/>
<path style=" stroke:none;fill-rule:nonzero;fill:rgb(6.010437%,50.360107%,79.891968%);fill-opacity:1;" d="M 185.542969 39.910156 C 185.542969 37.160156 183.238281 36.492188 181.605469 36.492188 C 178.96875 36.492188 176.074219 38.460938 176.074219 43.472656 C 176.074219 47.558594 178.558594 50.601563 181.941406 50.601563 C 183.054688 50.601563 185.542969 49.785156 185.542969 48.414063 Z M 188.511719 49.082031 C 188.511719 50.601563 188.886719 50.601563 190.332031 50.601563 L 190.964844 50.601563 L 190.964844 51.347656 L 190.925781 51.347656 C 190.367188 51.457031 189.367188 51.753906 188.289063 52.089844 C 187.136719 52.460938 186.171875 52.832031 185.949219 52.832031 C 185.578125 52.832031 185.542969 52.277344 185.542969 51.828125 L 185.542969 50.121094 L 185.46875 50.121094 C 184.132813 51.496094 182.050781 52.832031 179.785156 52.832031 C 175.328125 52.832031 172.878906 48.933594 172.878906 44.773438 C 172.878906 39.761719 176.925781 35.304688 182.050781 35.304688 C 183.238281 35.304688 184.464844 35.527344 185.542969 35.972656 L 185.542969 29.402344 C 185.542969 26.988281 184.984375 26.914063 183.574219 26.503906 L 183.574219 25.910156 C 185.058594 25.425781 186.621094 24.757813 187.398438 24.3125 C 187.808594 24.089844 188.105469 23.90625 188.214844 23.90625 C 188.4375 23.90625 188.511719 24.128906 188.511719 24.425781 Z M 188.511719 49.082031 "/>
<path style=" stroke:none;fill-rule:nonzero;fill:rgb(6.010437%,50.360107%,79.891968%);fill-opacity:1;" d="M 192.710938 47.113281 C 193.191406 49.566406 194.675781 51.644531 197.386719 51.644531 C 199.578125 51.644531 200.398438 50.308594 200.398438 49.007813 C 200.398438 44.625 192.300781 46.035156 192.300781 40.058594 C 192.300781 37.980469 193.972656 35.304688 198.054688 35.304688 C 199.246094 35.304688 200.84375 35.640625 202.289063 36.382813 L 202.550781 40.171875 L 201.695313 40.171875 C 201.324219 37.832031 200.023438 36.492188 197.648438 36.492188 C 196.164063 36.492188 194.753906 37.347656 194.753906 38.945313 C 194.753906 43.289063 203.367188 41.953125 203.367188 47.78125 C 203.367188 50.234375 201.398438 52.832031 196.980469 52.832031 C 195.496094 52.832031 193.75 52.3125 192.449219 51.570313 L 192.042969 47.300781 Z M 192.710938 47.113281 "/>
<path style=" stroke:none;fill-rule:nonzero;fill:rgb(6.010437%,50.360107%,79.891968%);fill-opacity:1;" d="M 213.308594 51.867188 C 217.019531 51.867188 218.46875 47.558594 218.46875 44.367188 C 218.46875 41.320313 216.835938 36.269531 212.898438 36.269531 C 209.222656 36.269531 207.773438 40.578125 207.773438 43.773438 C 207.773438 46.816406 209.410156 51.867188 213.308594 51.867188 M 212.863281 35.304688 C 218.023438 35.304688 221.886719 38.722656 221.886719 43.996094 C 221.886719 48.785156 218.097656 52.832031 213.34375 52.832031 C 208.40625 52.832031 204.359375 49.417969 204.359375 44.144531 C 204.359375 39.351563 207.886719 35.304688 212.863281 35.304688 "/>
<path style=" stroke:none;fill-rule:nonzero;fill:rgb(6.010437%,50.360107%,79.891968%);fill-opacity:1;" d="M 90.675781 58.585938 L 91.671875 58.585938 L 91.671875 65.21875 L 95.101563 65.21875 L 95.101563 66.117188 L 90.675781 66.117188 Z M 90.675781 58.585938 "/>
<path style=" stroke:none;fill-rule:nonzero;fill:rgb(6.010437%,50.360107%,79.891968%);fill-opacity:1;" d="M 98.757813 58.585938 L 99.761719 58.585938 L 99.761719 66.117188 L 98.757813 66.117188 Z M 98.757813 58.585938 "/>
<path style=" stroke:none;fill-rule:nonzero;fill:rgb(6.010437%,50.360107%,79.891968%);fill-opacity:1;" d="M 104.003906 58.585938 L 105.4375 58.585938 L 109.003906 64.726563 L 109.003906 58.585938 L 109.910156 58.585938 L 109.910156 66.117188 L 108.679688 66.117188 L 104.933594 59.726563 L 104.933594 66.117188 L 104.003906 66.117188 Z M 104.003906 58.585938 "/>
<path style=" stroke:none;fill-rule:nonzero;fill:rgb(6.010437%,50.360107%,79.891968%);fill-opacity:1;" d="M 114.152344 58.585938 L 115.15625 58.585938 L 115.15625 61.816406 L 118.25 58.585938 L 119.601563 58.585938 L 116.328125 61.933594 L 120 66.117188 L 118.554688 66.117188 L 115.15625 62.132813 L 115.15625 66.117188 L 114.152344 66.117188 Z M 114.152344 58.585938 "/>
<path style=" stroke:none;fill-rule:nonzero;fill:rgb(6.010437%,50.360107%,79.891968%);fill-opacity:1;" d="M 123.058594 61.917969 L 125.535156 61.917969 L 125.535156 62.796875 L 123.058594 62.796875 Z M 123.058594 61.917969 "/>
<path style=" stroke:none;fill-rule:nonzero;fill:rgb(6.010437%,50.360107%,79.891968%);fill-opacity:1;" d="M 129.382813 58.585938 L 130.386719 58.585938 L 130.386719 66.117188 L 129.382813 66.117188 Z M 129.382813 58.585938 "/>
<path style=" stroke:none;fill-rule:nonzero;fill:rgb(6.010437%,50.360107%,79.891968%);fill-opacity:1;" d="M 135.289063 63.542969 C 135.289063 64.789063 135.863281 65.511719 136.886719 65.511719 C 137.871094 65.511719 138.507813 64.777344 138.507813 63.460938 C 138.507813 62.164063 137.914063 61.441406 136.90625 61.441406 C 135.914063 61.441406 135.289063 62.246094 135.289063 63.542969 M 136.90625 60.753906 C 138.527344 60.753906 139.492188 61.734375 139.492188 63.449219 C 139.492188 65.21875 138.507813 66.242188 136.8125 66.242188 C 135.246094 66.242188 134.292969 65.226563 134.292969 63.597656 C 134.292969 61.839844 135.289063 60.753906 136.90625 60.753906 "/>
<path style=" stroke:none;fill-rule:nonzero;fill:rgb(6.010437%,50.360107%,79.891968%);fill-opacity:1;" d="M 143.960938 66.117188 L 143.960938 59.488281 L 141.460938 59.488281 L 141.460938 58.585938 L 147.472656 58.585938 L 147.472656 59.488281 L 144.964844 59.488281 L 144.964844 66.117188 Z M 143.960938 66.117188 "/>
</g>
</svg>
