<?xml version="1.0" standalone="no"?>
<!DOCTYPE svg PUBLIC "-//W3C//DTD SVG 20010904//EN"
 "http://www.w3.org/TR/2001/REC-SVG-20010904/DTD/svg10.dtd">
<svg version="1.0" xmlns="http://www.w3.org/2000/svg"
 width="571.000000pt" height="600.000000pt" viewBox="0 0 571.000000 600.000000"
 preserveAspectRatio="xMidYMid meet">
<metadata>
Created by potrace 1.16, written by Peter Selinger 2001-2019
</metadata>
<g transform="translate(0.000000,600.000000) scale(0.100000,-0.100000)"
fill="#000000" stroke="none">
<path d="M2985 5138 c-33 -4 -78 -6 -100 -4 -22 1 -31 1 -20 -2 11 -2 -27 -15
-85 -28 -154 -35 -279 -79 -429 -150 -73 -35 -137 -62 -141 -59 -4 2 -16 -2
-26 -11 -18 -14 -17 -14 6 -4 24 11 24 10 5 -5 -11 -8 -25 -13 -32 -11 -7 3
-15 0 -19 -6 -4 -7 -3 -8 4 -4 7 4 12 5 12 3 0 -10 -111 -77 -119 -72 -5 2
-15 -3 -22 -13 -13 -16 -13 -16 6 -2 19 14 19 14 6 -3 -8 -10 -20 -16 -27 -13
-7 3 -18 -3 -26 -12 -12 -16 -11 -16 7 -2 19 14 19 14 6 -3 -8 -10 -20 -16
-27 -13 -6 2 -22 -7 -35 -22 l-24 -27 30 25 30 25 -25 -28 c-13 -15 -29 -26
-36 -23 -13 5 -178 -157 -168 -166 3 -4 -24 -42 -60 -85 -188 -228 -323 -494
-403 -793 -44 -168 -53 -222 -59 -370 -23 -520 145 -1017 475 -1412 246 -293
603 -525 969 -629 135 -38 365 -78 502 -86 72 -5 96 -9 75 -14 -26 -6 -25 -7
15 -8 30 0 40 2 31 8 -14 9 4 12 163 27 166 15 421 84 581 158 50 23 75 30 79
23 2 -7 5 -5 5 3 1 17 107 74 121 65 5 -3 12 0 16 6 5 8 2 10 -7 5 -8 -4 -5 0
6 8 11 9 25 14 32 12 7 -3 15 0 19 6 5 7 2 8 -6 3 -9 -6 -11 -4 -6 4 5 7 14
10 22 7 7 -3 16 0 20 6 5 7 2 8 -6 3 -9 -6 -11 -4 -6 4 5 7 14 10 22 7 7 -3
16 0 20 6 5 7 2 8 -6 3 -9 -6 -11 -4 -6 4 5 7 14 10 21 7 8 -3 19 3 27 12 12
16 11 16 -7 2 -19 -14 -19 -14 -6 3 8 10 20 16 27 13 7 -3 18 3 26 12 12 16
11 16 -7 2 -19 -14 -19 -14 -6 3 8 10 20 16 27 13 7 -2 20 5 31 17 l18 22 -25
-20 -25 -20 19 23 c11 12 25 21 32 18 6 -2 25 10 40 27 l29 32 -35 -30 -35
-30 30 33 c16 18 34 31 41 28 10 -4 94 77 174 169 l35 40 -35 -30 c-19 -17 -2
3 38 43 46 45 72 78 68 87 -3 8 0 17 6 21 7 4 8 3 4 -4 -4 -7 -5 -12 -1 -12 6
0 104 149 129 199 10 18 13 30 7 26 -7 -3 1 18 16 49 14 30 30 53 35 50 4 -3
5 3 1 12 -4 12 -3 15 5 10 7 -4 10 -2 7 7 -3 7 6 39 20 71 38 86 92 273 116
399 29 158 37 450 15 612 -17 131 -66 316 -123 465 -175 461 -522 842 -984
1078 -134 68 -348 141 -502 171 -180 35 -469 49 -612 29z m-265 -1563 l0 -145
-170 0 -170 0 0 140 0 140 40 0 40 0 0 -80 c0 -76 1 -80 23 -80 21 0 22 4 22
67 l0 68 43 3 42 3 0 -70 c0 -69 1 -71 25 -71 25 0 25 1 25 85 l0 85 40 0 40
0 0 -145z m-890 -240 l0 -375 220 0 220 0 0 -120 0 -120 -385 0 -385 0 0 368
0 367 158 127 c86 70 160 127 165 127 4 1 7 -168 7 -374z m1475 123 c89 -136
164 -250 167 -254 4 -3 4 110 1 250 l-6 256 162 0 161 0 -2 -492 -3 -493 -151
-3 -151 -3 -173 266 c-96 145 -174 264 -175 262 -1 -1 2 -60 7 -132 5 -71 7
-188 6 -260 l-3 -130 -155 0 -155 0 -3 493 -2 493 157 -3 157 -3 161 -247z
m927 101 l3 -152 134 152 134 151 188 0 c104 0 189 -3 189 -6 0 -3 -79 -87
-176 -185 -131 -132 -174 -182 -166 -191 26 -33 382 -590 382 -599 0 -6 -74
-8 -192 -7 l-191 3 -113 185 c-62 102 -115 190 -117 195 -3 6 -20 -5 -38 -23
l-34 -32 -5 -163 -5 -162 -160 0 -160 0 -3 493 -2 492 165 0 164 0 3 -151z
m-1512 -219 l0 -60 -65 0 -65 0 0 -50 0 -50 65 0 65 0 0 -60 0 -60 -170 0
-170 0 0 60 0 60 55 0 55 0 0 50 0 50 -55 0 -55 0 0 60 0 60 170 0 170 0 0
-60z m-250 -360 l0 -50 125 0 125 0 0 -55 0 -55 -125 0 -125 0 0 -50 0 -50
-45 0 -45 0 0 155 0 155 45 0 45 0 0 -50z"/>
</g>
</svg>
